G04*
G04 #@! TF.GenerationSoftware,Altium Limited,Altium Designer,24.0.1 (36)*
G04*
G04 Layer_Color=65535*
%FSLAX44Y44*%
%MOMM*%
G71*
G04*
G04 #@! TF.SameCoordinates,4DCDF883-9DA8-4262-A2DB-AF35F01A7F01*
G04*
G04*
G04 #@! TF.FilePolarity,Positive*
G04*
G01*
G75*
%ADD10C,0.2000*%
%ADD11C,0.2540*%
%ADD12C,0.5000*%
%ADD13C,0.3810*%
%ADD14C,0.1270*%
D10*
X1055090Y814083D02*
G03*
X1047767Y806750I-23851J16497D01*
G01*
X1108697Y665200D02*
G03*
X1116030Y657877I-16497J-23851D01*
G01*
X1112240Y722643D02*
G03*
X1104917Y715310I-23851J16497D01*
G01*
X589100Y1075690D02*
G03*
X589100Y1075690I-1000J0D01*
G01*
X1056137Y798327D02*
X1063491Y805681D01*
X1047735Y806729D02*
X1056137Y798327D01*
X1055089Y814083D02*
X1063491Y805681D01*
X1228090Y1075690D02*
X1380490D01*
X1228090Y1050290D02*
X1380490D01*
Y1075690D01*
X1228090Y1050290D02*
Y1075690D01*
X1102360Y969010D02*
X1127760D01*
X1102360D02*
Y1045210D01*
X1127760D01*
Y969010D02*
Y1045210D01*
X1027430Y969010D02*
X1052830D01*
X1027430D02*
Y1045210D01*
X1052830D01*
Y969010D02*
Y1045210D01*
X1071880Y969010D02*
X1097280D01*
X1071880D02*
Y1045210D01*
X1097280D01*
Y969010D02*
Y1045210D01*
X1490610Y812580D02*
Y834930D01*
X1507150D01*
X1490610Y703630D02*
Y722780D01*
Y703630D02*
X1507150D01*
X1544650Y834930D02*
X1630610D01*
Y703630D02*
Y834930D01*
X1544650Y703630D02*
X1630610D01*
X1117099Y673601D02*
X1124453Y666247D01*
X1116051Y657845D02*
X1124453Y666247D01*
X1108697Y665199D02*
X1117099Y673601D01*
X1113287Y706887D02*
X1120641Y714241D01*
X1104885Y715289D02*
X1113287Y706887D01*
X1112239Y722643D02*
X1120641Y714241D01*
X1395730Y824230D02*
X1403350D01*
X1395730Y773430D02*
Y824230D01*
Y773430D02*
X1410970D01*
Y824230D01*
X1403350D02*
X1410970D01*
X1403350Y771144D02*
Y773430D01*
Y824230D02*
Y826516D01*
X976630Y295910D02*
Y321310D01*
X1027430D01*
Y295910D02*
Y321310D01*
X976630Y295910D02*
X1027430D01*
X367030Y372110D02*
Y397510D01*
X468630D01*
X367030Y372110D02*
X468630D01*
Y397510D01*
X1059180Y297180D02*
Y322580D01*
X1109980D01*
Y297180D02*
Y322580D01*
X1059180Y297180D02*
X1109980D01*
X963930Y765810D02*
X971550D01*
Y816610D01*
X956310D02*
X971550D01*
X956310Y765810D02*
Y816610D01*
Y765810D02*
X963930D01*
Y816610D02*
Y818896D01*
Y763524D02*
Y765810D01*
X1043940Y896620D02*
Y904240D01*
Y896620D02*
X1094740D01*
Y911860D01*
X1043940D02*
X1094740D01*
X1043940Y904240D02*
Y911860D01*
X1094740Y904240D02*
X1097026D01*
X1041654D02*
X1043940D01*
X981650Y661670D02*
X985650D01*
X932050D02*
X936050D01*
X943850Y653120D02*
Y670220D01*
X936050Y652120D02*
Y671220D01*
Y652120D02*
X981650D01*
Y671220D01*
X936050D02*
X981650D01*
X919480Y765680D02*
Y769680D01*
Y815280D02*
Y819280D01*
X910930Y807480D02*
X928030D01*
X909930Y815280D02*
X929030D01*
X909930Y769680D02*
Y815280D01*
Y769680D02*
X929030D01*
Y815280D01*
X1022350Y751840D02*
X1029970D01*
X1022350Y701040D02*
Y751840D01*
Y701040D02*
X1037590D01*
Y751840D01*
X1029970D02*
X1037590D01*
X1029970Y698754D02*
Y701040D01*
Y751840D02*
Y754126D01*
X1143000Y839470D02*
X1150620D01*
Y890270D01*
X1135380D02*
X1150620D01*
X1135380Y839470D02*
Y890270D01*
Y839470D02*
X1143000D01*
Y890270D02*
Y892556D01*
Y837184D02*
Y839470D01*
X1427480Y656590D02*
X1452880D01*
Y605790D02*
Y656590D01*
X1427480Y605790D02*
X1452880D01*
X1427480D02*
Y656590D01*
D11*
X554990Y1065530D02*
G03*
X554990Y1065530I-25400J0D01*
G01*
X551527Y1053082D02*
G03*
X507653Y1053082I-21937J-15936D01*
G01*
X960467Y1049272D02*
G03*
X916593Y1049272I-21937J-15936D01*
G01*
X963930Y1061720D02*
G03*
X963930Y1061720I-25400J0D01*
G01*
X876774Y353730D02*
G03*
X876774Y353730I-27514J0D01*
G01*
X959868Y931257D02*
G03*
X959868Y887383I15936J-21937D01*
G01*
X972820Y909320D02*
G03*
X972820Y909320I-25400J0D01*
G01*
X740884Y356270D02*
G03*
X740884Y356270I-27514J0D01*
G01*
X1344678Y658207D02*
G03*
X1344678Y614333I15936J-21937D01*
G01*
X1357630Y636270D02*
G03*
X1357630Y636270I-25400J0D01*
G01*
X597374Y356270D02*
G03*
X597374Y356270I-27514J0D01*
G01*
X1176020Y868680D02*
X1432560D01*
X1176020Y1097280D02*
X1432560D01*
Y868680D02*
Y1097280D01*
X1176020Y868680D02*
Y1097280D01*
X529590Y1028700D02*
Y1036320D01*
X505460Y1068070D02*
X553720D01*
X1372986Y1141540D02*
Y1156240D01*
X1369186Y1152440D02*
X1372986Y1156240D01*
X1369186Y1152440D02*
X1372986Y1156240D01*
Y1156140D02*
Y1156240D01*
Y1156140D02*
X1376386Y1152740D01*
X1323086Y1156040D02*
X1326486Y1152640D01*
X1323086Y1156040D02*
Y1156140D01*
X1319286Y1152340D02*
X1323086Y1156140D01*
X1319286Y1152340D02*
X1323086Y1156140D01*
Y1141440D02*
Y1156140D01*
X1398270Y1141476D02*
Y1231646D01*
X1297686Y1141440D02*
X1398286D01*
X1297686Y1141476D02*
Y1231646D01*
Y1231640D02*
X1398286D01*
X914400Y1064260D02*
X962660D01*
X938530Y1024890D02*
Y1032510D01*
X796260Y303130D02*
Y404730D01*
X901260Y303130D02*
Y404730D01*
X796260D02*
X901260D01*
X796260Y303130D02*
X901260D01*
X944880Y885190D02*
Y933450D01*
X976630Y909320D02*
X984250D01*
X660370Y305670D02*
Y407270D01*
X765370Y305670D02*
Y407270D01*
X660370D02*
X765370D01*
X660370Y305670D02*
X765370D01*
X1329690Y612140D02*
Y660400D01*
X1361440Y636270D02*
X1369060D01*
X516860Y305670D02*
Y407270D01*
X621860Y305670D02*
Y407270D01*
X516860D02*
X621860D01*
X516860Y305670D02*
X621860D01*
X1450340Y1002275D02*
Y1017510D01*
X1455418Y1012431D01*
X1460497Y1017510D01*
Y1002275D01*
X1473193D02*
X1468114D01*
X1465575Y1004814D01*
Y1009892D01*
X1468114Y1012431D01*
X1473193D01*
X1475732Y1009892D01*
Y1007353D01*
X1465575D01*
X1483349Y1012431D02*
X1488428D01*
X1490967Y1009892D01*
Y1002275D01*
X1483349D01*
X1480810Y1004814D01*
X1483349Y1007353D01*
X1490967D01*
X1496045Y1002275D02*
X1503663D01*
X1506202Y1004814D01*
X1503663Y1007353D01*
X1498584D01*
X1496045Y1009892D01*
X1498584Y1012431D01*
X1506202D01*
X1511280D02*
Y1004814D01*
X1513819Y1002275D01*
X1521437D01*
Y1012431D01*
X1526515D02*
Y1002275D01*
Y1007353D01*
X1529055Y1009892D01*
X1531594Y1012431D01*
X1534133D01*
X1541750Y1002275D02*
X1546829D01*
X1544290D01*
Y1012431D01*
X1541750D01*
X1554446Y1002275D02*
Y1012431D01*
X1562064D01*
X1564603Y1009892D01*
Y1002275D01*
X1574760Y997196D02*
X1577299D01*
X1579838Y999736D01*
Y1012431D01*
X1572221D01*
X1569681Y1009892D01*
Y1004814D01*
X1572221Y1002275D01*
X1579838D01*
X1460497Y985514D02*
X1457957Y988053D01*
X1452879D01*
X1450340Y985514D01*
Y982975D01*
X1452879Y980436D01*
X1457957D01*
X1460497Y977897D01*
Y975358D01*
X1457957Y972818D01*
X1452879D01*
X1450340Y975358D01*
X1465575Y982975D02*
Y975358D01*
X1468114Y972818D01*
X1475732D01*
Y970279D01*
X1473193Y967740D01*
X1470653D01*
X1475732Y972818D02*
Y982975D01*
X1480810Y972818D02*
X1488428D01*
X1490967Y975358D01*
X1488428Y977897D01*
X1483349D01*
X1480810Y980436D01*
X1483349Y982975D01*
X1490967D01*
X1498584Y985514D02*
Y982975D01*
X1496045D01*
X1501124D01*
X1498584D01*
Y975358D01*
X1501124Y972818D01*
X1516359D02*
X1511280D01*
X1508741Y975358D01*
Y980436D01*
X1511280Y982975D01*
X1516359D01*
X1518898Y980436D01*
Y977897D01*
X1508741D01*
X1523976Y972818D02*
Y982975D01*
X1526515D01*
X1529055Y980436D01*
Y972818D01*
Y980436D01*
X1531594Y982975D01*
X1534133Y980436D01*
Y972818D01*
X1137920Y541758D02*
Y526523D01*
X1145537D01*
X1148077Y529062D01*
Y539218D01*
X1145537Y541758D01*
X1137920D01*
X1155694Y536679D02*
X1160773D01*
X1163312Y534140D01*
Y526523D01*
X1155694D01*
X1153155Y529062D01*
X1155694Y531601D01*
X1163312D01*
X1168390Y526523D02*
Y536679D01*
X1176008D01*
X1178547Y534140D01*
Y526523D01*
X1186164Y539218D02*
Y536679D01*
X1183625D01*
X1188704D01*
X1186164D01*
Y529062D01*
X1188704Y526523D01*
X1198860D02*
X1203939D01*
X1206478Y529062D01*
Y534140D01*
X1203939Y536679D01*
X1198860D01*
X1196321Y534140D01*
Y529062D01*
X1198860Y526523D01*
X1211556D02*
Y536679D01*
X1219174D01*
X1221713Y534140D01*
Y526523D01*
X1242026Y541758D02*
Y526523D01*
Y531601D01*
X1252183Y541758D01*
X1244566Y534140D01*
X1252183Y526523D01*
X1257261D02*
X1262340D01*
X1259801D01*
Y541758D01*
X1257261D01*
X1277575Y526523D02*
X1272496D01*
X1269957Y529062D01*
Y534140D01*
X1272496Y536679D01*
X1277575D01*
X1280114Y534140D01*
Y531601D01*
X1269957D01*
X1285192Y526523D02*
X1290271D01*
X1287731D01*
Y536679D01*
X1285192D01*
X1297888Y526523D02*
Y536679D01*
X1305506D01*
X1308045Y534140D01*
Y526523D01*
X1148077Y490462D02*
X1145537Y493002D01*
X1140459D01*
X1137920Y490462D01*
Y487923D01*
X1140459Y485384D01*
X1145537D01*
X1148077Y482845D01*
Y480306D01*
X1145537Y477766D01*
X1140459D01*
X1137920Y480306D01*
X1160773Y477766D02*
X1155694D01*
X1153155Y480306D01*
Y485384D01*
X1155694Y487923D01*
X1160773D01*
X1163312Y485384D01*
Y482845D01*
X1153155D01*
X1168390Y477766D02*
Y487923D01*
X1176008D01*
X1178547Y485384D01*
Y477766D01*
X1183625D02*
X1188704D01*
X1186164D01*
Y487923D01*
X1183625D01*
X1198860Y477766D02*
X1203939D01*
X1206478Y480306D01*
Y485384D01*
X1203939Y487923D01*
X1198860D01*
X1196321Y485384D01*
Y480306D01*
X1198860Y477766D01*
X1211556Y487923D02*
Y477766D01*
Y482845D01*
X1214095Y485384D01*
X1216635Y487923D01*
X1219174D01*
X1242026Y493002D02*
Y477766D01*
X1249644D01*
X1252183Y480306D01*
Y490462D01*
X1249644Y493002D01*
X1242026D01*
X1264879Y477766D02*
X1259801D01*
X1257261Y480306D01*
Y485384D01*
X1259801Y487923D01*
X1264879D01*
X1267418Y485384D01*
Y482845D01*
X1257261D01*
X1272496Y477766D02*
X1280114D01*
X1282653Y480306D01*
X1280114Y482845D01*
X1275036D01*
X1272496Y485384D01*
X1275036Y487923D01*
X1282653D01*
X1287731Y477766D02*
X1292810D01*
X1290271D01*
Y487923D01*
X1287731D01*
X1305506Y472688D02*
X1308045D01*
X1310584Y475227D01*
Y487923D01*
X1302967D01*
X1300427Y485384D01*
Y480306D01*
X1302967Y477766D01*
X1310584D01*
X1315663D02*
Y487923D01*
X1323280D01*
X1325819Y485384D01*
Y477766D01*
X1346133D02*
Y493002D01*
X1353750D01*
X1356289Y490462D01*
Y485384D01*
X1353750Y482845D01*
X1346133D01*
X1361368Y487923D02*
Y477766D01*
Y482845D01*
X1363907Y485384D01*
X1366446Y487923D01*
X1368985D01*
X1379142Y477766D02*
X1384220D01*
X1386759Y480306D01*
Y485384D01*
X1384220Y487923D01*
X1379142D01*
X1376603Y485384D01*
Y480306D01*
X1379142Y477766D01*
X1391838Y472688D02*
X1394377D01*
X1396916Y475227D01*
Y487923D01*
X1414691Y477766D02*
X1409612D01*
X1407073Y480306D01*
Y485384D01*
X1409612Y487923D01*
X1414691D01*
X1417230Y485384D01*
Y482845D01*
X1407073D01*
X1432465Y487923D02*
X1424847D01*
X1422308Y485384D01*
Y480306D01*
X1424847Y477766D01*
X1432465D01*
X1440082Y490462D02*
Y487923D01*
X1437543D01*
X1442621D01*
X1440082D01*
Y480306D01*
X1442621Y477766D01*
X1148077Y461006D02*
X1145537Y463545D01*
X1140459D01*
X1137920Y461006D01*
Y458467D01*
X1140459Y455928D01*
X1145537D01*
X1148077Y453388D01*
Y450849D01*
X1145537Y448310D01*
X1140459D01*
X1137920Y450849D01*
X1153155Y448310D02*
Y458467D01*
X1155694D01*
X1158233Y455928D01*
Y448310D01*
Y455928D01*
X1160773Y458467D01*
X1163312Y455928D01*
Y448310D01*
X1170929Y458467D02*
X1176008D01*
X1178547Y455928D01*
Y448310D01*
X1170929D01*
X1168390Y450849D01*
X1170929Y453388D01*
X1178547D01*
X1183625Y458467D02*
Y448310D01*
Y453388D01*
X1186164Y455928D01*
X1188704Y458467D01*
X1191243D01*
X1201400Y461006D02*
Y458467D01*
X1198860D01*
X1203939D01*
X1201400D01*
Y450849D01*
X1203939Y448310D01*
X1236948Y461006D02*
X1234409Y463545D01*
X1229330D01*
X1226791Y461006D01*
Y458467D01*
X1229330Y455928D01*
X1234409D01*
X1236948Y453388D01*
Y450849D01*
X1234409Y448310D01*
X1229330D01*
X1226791Y450849D01*
X1244566Y448310D02*
X1249644D01*
X1252183Y450849D01*
Y455928D01*
X1249644Y458467D01*
X1244566D01*
X1242026Y455928D01*
Y450849D01*
X1244566Y448310D01*
X1257261D02*
X1262340D01*
X1259801D01*
Y463545D01*
X1257261D01*
X1272496Y458467D02*
X1277575D01*
X1280114Y455928D01*
Y448310D01*
X1272496D01*
X1269957Y450849D01*
X1272496Y453388D01*
X1280114D01*
X1285192Y458467D02*
Y448310D01*
Y453388D01*
X1287731Y455928D01*
X1290271Y458467D01*
X1292810D01*
X1325819Y461006D02*
X1323280Y463545D01*
X1318202D01*
X1315663Y461006D01*
Y458467D01*
X1318202Y455928D01*
X1323280D01*
X1325819Y453388D01*
Y450849D01*
X1323280Y448310D01*
X1318202D01*
X1315663Y450849D01*
X1333437Y461006D02*
Y458467D01*
X1330898D01*
X1335976D01*
X1333437D01*
Y450849D01*
X1335976Y448310D01*
X1346133Y458467D02*
X1351211D01*
X1353750Y455928D01*
Y448310D01*
X1346133D01*
X1343593Y450849D01*
X1346133Y453388D01*
X1353750D01*
X1358828Y448310D02*
Y458467D01*
X1366446D01*
X1368985Y455928D01*
Y448310D01*
X1384220Y463545D02*
Y448310D01*
X1376603D01*
X1374064Y450849D01*
Y455928D01*
X1376603Y458467D01*
X1384220D01*
X1484630Y944878D02*
X1482091Y947418D01*
X1477012D01*
X1474473Y944878D01*
Y942339D01*
X1477012Y939800D01*
X1482091D01*
X1484630Y937261D01*
Y934722D01*
X1482091Y932182D01*
X1477012D01*
X1474473Y934722D01*
X1489708Y932182D02*
X1494787D01*
X1492248D01*
Y947418D01*
X1489708Y944878D01*
X1469391Y1079498D02*
X1466852Y1082038D01*
X1461773D01*
X1459234Y1079498D01*
Y1076959D01*
X1461773Y1074420D01*
X1466852D01*
X1469391Y1071881D01*
Y1069342D01*
X1466852Y1066803D01*
X1461773D01*
X1459234Y1069342D01*
X1484626Y1066803D02*
X1474469D01*
X1484626Y1076959D01*
Y1079498D01*
X1482087Y1082038D01*
X1477008D01*
X1474469Y1079498D01*
X1503680Y1126490D02*
Y1141725D01*
X1511297D01*
X1513837Y1139186D01*
Y1134108D01*
X1511297Y1131568D01*
X1503680D01*
X1521454Y1126490D02*
X1526533D01*
X1529072Y1129029D01*
Y1134108D01*
X1526533Y1136647D01*
X1521454D01*
X1518915Y1134108D01*
Y1129029D01*
X1521454Y1126490D01*
X1534150Y1136647D02*
Y1129029D01*
X1536689Y1126490D01*
X1539229Y1129029D01*
X1541768Y1126490D01*
X1544307Y1129029D01*
Y1136647D01*
X1557003Y1126490D02*
X1551924D01*
X1549385Y1129029D01*
Y1134108D01*
X1551924Y1136647D01*
X1557003D01*
X1559542Y1134108D01*
Y1131568D01*
X1549385D01*
X1564620Y1136647D02*
Y1126490D01*
Y1131568D01*
X1567159Y1134108D01*
X1569699Y1136647D01*
X1572238D01*
X310896Y489199D02*
Y473964D01*
Y481581D01*
X321053D01*
Y489199D01*
Y473964D01*
X336288D02*
X326131D01*
X336288Y484121D01*
Y486660D01*
X333749Y489199D01*
X328670D01*
X326131Y486660D01*
X310896Y1238499D02*
Y1223264D01*
Y1230882D01*
X321053D01*
Y1238499D01*
Y1223264D01*
X326131Y1235960D02*
X328670Y1238499D01*
X333749D01*
X336288Y1235960D01*
Y1233421D01*
X333749Y1230882D01*
X331209D01*
X333749D01*
X336288Y1228342D01*
Y1225803D01*
X333749Y1223264D01*
X328670D01*
X326131Y1225803D01*
X1491996Y1238499D02*
Y1223264D01*
Y1230882D01*
X1502153D01*
Y1238499D01*
Y1223264D01*
X1507231D02*
X1512309D01*
X1509770D01*
Y1238499D01*
X1507231Y1235960D01*
X486422Y1116332D02*
Y1131568D01*
X494039D01*
X496578Y1129028D01*
Y1123950D01*
X494039Y1121411D01*
X486422D01*
X511813Y1129028D02*
X509274Y1131568D01*
X504196D01*
X501657Y1129028D01*
Y1118872D01*
X504196Y1116332D01*
X509274D01*
X511813Y1118872D01*
X516892Y1116332D02*
Y1126489D01*
X521970Y1131568D01*
X527048Y1126489D01*
Y1116332D01*
Y1123950D01*
X516892D01*
X532127Y1116332D02*
Y1131568D01*
X539744D01*
X542283Y1129028D01*
Y1123950D01*
X539744Y1121411D01*
X532127D01*
X547362Y1129028D02*
X549901Y1131568D01*
X554979D01*
X557519Y1129028D01*
Y1126489D01*
X554979Y1123950D01*
X552440D01*
X554979D01*
X557519Y1121411D01*
Y1118872D01*
X554979Y1116332D01*
X549901D01*
X547362Y1118872D01*
X529588Y1104900D02*
Y1094743D01*
X534667Y1099822D02*
X524510D01*
X1426212Y1163317D02*
X1421134D01*
X1423673D01*
Y1150622D01*
X1421134Y1148083D01*
X1418595D01*
X1416056Y1150622D01*
X1431291Y1148083D02*
Y1163317D01*
X1438908D01*
X1441448Y1160778D01*
Y1155700D01*
X1438908Y1153161D01*
X1431291D01*
X1446526Y1148083D02*
X1451604D01*
X1449065D01*
Y1163317D01*
X1446526Y1160778D01*
X1192533Y1055372D02*
Y1070608D01*
X1200151D01*
X1202690Y1068068D01*
Y1062990D01*
X1200151Y1060451D01*
X1192533D01*
X1207768Y1055372D02*
X1212847D01*
X1210308D01*
Y1070608D01*
X1207768Y1068068D01*
X1491996Y374899D02*
Y359664D01*
Y367281D01*
X1502153D01*
Y374899D01*
Y359664D01*
X1517388Y374899D02*
X1507231D01*
Y367281D01*
X1512309Y369821D01*
X1514849D01*
X1517388Y367281D01*
Y362203D01*
X1514849Y359664D01*
X1509770D01*
X1507231Y362203D01*
X310896Y374899D02*
Y359664D01*
Y367281D01*
X321053D01*
Y374899D01*
Y359664D01*
X333749D02*
Y374899D01*
X326131Y367281D01*
X336288D01*
X1107442Y1121398D02*
X1122677D01*
Y1113781D01*
X1120138Y1111242D01*
X1115060D01*
X1112520Y1113781D01*
Y1121398D01*
X1104903Y1106163D02*
Y1096007D01*
X1120138Y1080772D02*
X1122677Y1083311D01*
Y1088389D01*
X1120138Y1090928D01*
X1109981D01*
X1107442Y1088389D01*
Y1083311D01*
X1109981Y1080772D01*
X1115060D01*
Y1085850D01*
X1107442Y1075693D02*
X1122677D01*
X1107442Y1065537D01*
X1122677D01*
Y1060458D02*
X1107442D01*
Y1052841D01*
X1109981Y1050302D01*
X1120138D01*
X1122677Y1052841D01*
Y1060458D01*
X1033782Y1120131D02*
X1049017D01*
Y1112513D01*
X1046478Y1109974D01*
X1041400D01*
X1038860Y1112513D01*
Y1120131D01*
X1031243Y1104896D02*
Y1094739D01*
X1046478Y1079504D02*
X1049017Y1082043D01*
Y1087122D01*
X1046478Y1089661D01*
X1043939D01*
X1041400Y1087122D01*
Y1082043D01*
X1038860Y1079504D01*
X1036321D01*
X1033782Y1082043D01*
Y1087122D01*
X1036321Y1089661D01*
X1049017Y1074426D02*
X1033782D01*
X1038860Y1069347D01*
X1033782Y1064269D01*
X1049017D01*
X1074422Y1121401D02*
X1089657D01*
Y1113783D01*
X1087118Y1111244D01*
X1082040D01*
X1079500Y1113783D01*
Y1121401D01*
X1071883Y1106166D02*
Y1096009D01*
X1089657Y1080774D02*
Y1090931D01*
X1082040D01*
X1084579Y1085853D01*
Y1083313D01*
X1082040Y1080774D01*
X1076961D01*
X1074422Y1083313D01*
Y1088392D01*
X1076961Y1090931D01*
X1089657Y1075696D02*
X1079500D01*
X1074422Y1070617D01*
X1079500Y1065539D01*
X1089657D01*
X1489707Y874517D02*
X1484628D01*
X1487168D01*
Y861821D01*
X1484628Y859282D01*
X1482089D01*
X1479550Y861821D01*
X1494785Y859282D02*
X1499863D01*
X1497324D01*
Y874517D01*
X1494785Y871978D01*
X938528Y1101090D02*
Y1090933D01*
X943607Y1096012D02*
X933450D01*
X908050Y909318D02*
X918207D01*
X913128Y914397D02*
Y904240D01*
X1292860Y636268D02*
X1303017D01*
X1297938Y641347D02*
Y631190D01*
X528317Y428748D02*
X525778Y431287D01*
X520699D01*
X518160Y428748D01*
Y426209D01*
X520699Y423670D01*
X525778D01*
X528317Y421130D01*
Y418591D01*
X525778Y416052D01*
X520699D01*
X518160Y418591D01*
X543552Y431287D02*
X533395D01*
Y423670D01*
X538473Y426209D01*
X541013D01*
X543552Y423670D01*
Y418591D01*
X541013Y416052D01*
X535934D01*
X533395Y418591D01*
X671827Y428748D02*
X669287Y431287D01*
X664209D01*
X661670Y428748D01*
Y426209D01*
X664209Y423670D01*
X669287D01*
X671827Y421130D01*
Y418591D01*
X669287Y416052D01*
X664209D01*
X661670Y418591D01*
X684523Y416052D02*
Y431287D01*
X676905Y423670D01*
X687062D01*
X807717Y426208D02*
X805178Y428747D01*
X800099D01*
X797560Y426208D01*
Y423669D01*
X800099Y421129D01*
X805178D01*
X807717Y418590D01*
Y416051D01*
X805178Y413512D01*
X800099D01*
X797560Y416051D01*
X812795Y426208D02*
X815334Y428747D01*
X820413D01*
X822952Y426208D01*
Y423669D01*
X820413Y421129D01*
X817873D01*
X820413D01*
X822952Y418590D01*
Y416051D01*
X820413Y413512D01*
X815334D01*
X812795Y416051D01*
X1397254Y852678D02*
Y867913D01*
X1404872D01*
X1407411Y865374D01*
Y860295D01*
X1404872Y857756D01*
X1397254D01*
X1402332D02*
X1407411Y852678D01*
X1422646Y867913D02*
X1412489D01*
Y860295D01*
X1417567Y862835D01*
X1420107D01*
X1422646Y860295D01*
Y855217D01*
X1420107Y852678D01*
X1415028D01*
X1412489Y855217D01*
X1023874Y780288D02*
Y795523D01*
X1031491D01*
X1034031Y792984D01*
Y787906D01*
X1031491Y785366D01*
X1023874D01*
X1028952D02*
X1034031Y780288D01*
X1046727D02*
Y795523D01*
X1039109Y787906D01*
X1049266D01*
X1136904Y918718D02*
Y933953D01*
X1144521D01*
X1147061Y931414D01*
Y926336D01*
X1144521Y923796D01*
X1136904D01*
X1141982D02*
X1147061Y918718D01*
X1152139Y931414D02*
X1154678Y933953D01*
X1159757D01*
X1162296Y931414D01*
Y928875D01*
X1159757Y926336D01*
X1157217D01*
X1159757D01*
X1162296Y923796D01*
Y921257D01*
X1159757Y918718D01*
X1154678D01*
X1152139Y921257D01*
X957834Y845058D02*
Y860293D01*
X965452D01*
X967991Y857754D01*
Y852675D01*
X965452Y850136D01*
X957834D01*
X962912D02*
X967991Y845058D01*
X983226D02*
X973069D01*
X983226Y855215D01*
Y857754D01*
X980687Y860293D01*
X975608D01*
X973069Y857754D01*
X1025652Y920496D02*
Y935731D01*
X1033270D01*
X1035809Y933192D01*
Y928113D01*
X1033270Y925574D01*
X1025652D01*
X1030730D02*
X1035809Y920496D01*
X1040887D02*
X1045965D01*
X1043426D01*
Y935731D01*
X1040887Y933192D01*
X1074925Y684783D02*
Y694940D01*
X1072385Y697479D01*
X1067307D01*
X1064768Y694940D01*
Y684783D01*
X1067307Y682244D01*
X1072385D01*
X1069846Y687322D02*
X1074925Y682244D01*
X1072385D02*
X1074925Y684783D01*
X1080003Y694940D02*
X1082542Y697479D01*
X1087621D01*
X1090160Y694940D01*
Y692401D01*
X1087621Y689862D01*
X1085081D01*
X1087621D01*
X1090160Y687322D01*
Y684783D01*
X1087621Y682244D01*
X1082542D01*
X1080003Y684783D01*
X1071115Y779271D02*
Y789428D01*
X1068576Y791967D01*
X1063497D01*
X1060958Y789428D01*
Y779271D01*
X1063497Y776732D01*
X1068576D01*
X1066036Y781810D02*
X1071115Y776732D01*
X1068576D02*
X1071115Y779271D01*
X1086350Y776732D02*
X1076193D01*
X1086350Y786889D01*
Y789428D01*
X1083811Y791967D01*
X1078732D01*
X1076193Y789428D01*
X1013965Y870711D02*
Y880868D01*
X1011425Y883407D01*
X1006347D01*
X1003808Y880868D01*
Y870711D01*
X1006347Y868172D01*
X1011425D01*
X1008886Y873250D02*
X1013965Y868172D01*
X1011425D02*
X1013965Y870711D01*
X1019043Y868172D02*
X1024121D01*
X1021582D01*
Y883407D01*
X1019043Y880868D01*
X914400Y1111250D02*
Y1126485D01*
X922018D01*
X924557Y1123946D01*
Y1118867D01*
X922018Y1116328D01*
X914400D01*
X939792Y1123946D02*
X937253Y1126485D01*
X932174D01*
X929635Y1123946D01*
Y1113789D01*
X932174Y1111250D01*
X937253D01*
X939792Y1113789D01*
X944870Y1111250D02*
Y1121407D01*
X949949Y1126485D01*
X955027Y1121407D01*
Y1111250D01*
Y1118867D01*
X944870D01*
X960105Y1111250D02*
Y1126485D01*
X967723D01*
X970262Y1123946D01*
Y1118867D01*
X967723Y1116328D01*
X960105D01*
X982958Y1111250D02*
Y1126485D01*
X975340Y1118867D01*
X985497D01*
X1292860Y670560D02*
Y685795D01*
X1300477D01*
X1303017Y683256D01*
Y678177D01*
X1300477Y675638D01*
X1292860D01*
X1318252Y683256D02*
X1315713Y685795D01*
X1310634D01*
X1308095Y683256D01*
Y673099D01*
X1310634Y670560D01*
X1315713D01*
X1318252Y673099D01*
X1323330Y670560D02*
Y680717D01*
X1328409Y685795D01*
X1333487Y680717D01*
Y670560D01*
Y678177D01*
X1323330D01*
X1338565Y670560D02*
Y685795D01*
X1346183D01*
X1348722Y683256D01*
Y678177D01*
X1346183Y675638D01*
X1338565D01*
X1363957Y670560D02*
X1353800D01*
X1363957Y680717D01*
Y683256D01*
X1361418Y685795D01*
X1356340D01*
X1353800Y683256D01*
X908050Y943610D02*
Y958845D01*
X915667D01*
X918207Y956306D01*
Y951227D01*
X915667Y948688D01*
X908050D01*
X933442Y956306D02*
X930903Y958845D01*
X925824D01*
X923285Y956306D01*
Y946149D01*
X925824Y943610D01*
X930903D01*
X933442Y946149D01*
X938520Y943610D02*
Y953767D01*
X943598Y958845D01*
X948677Y953767D01*
Y943610D01*
Y951227D01*
X938520D01*
X953755Y943610D02*
Y958845D01*
X961373D01*
X963912Y956306D01*
Y951227D01*
X961373Y948688D01*
X953755D01*
X968990Y943610D02*
X974069D01*
X971529D01*
Y958845D01*
X968990Y956306D01*
X1060704Y331216D02*
Y346451D01*
X1068322D01*
X1070861Y343912D01*
Y338834D01*
X1068322Y336294D01*
X1060704D01*
X1075939Y343912D02*
X1078478Y346451D01*
X1083557D01*
X1086096Y343912D01*
Y341373D01*
X1083557Y338834D01*
X1086096Y336294D01*
Y333755D01*
X1083557Y331216D01*
X1078478D01*
X1075939Y333755D01*
Y336294D01*
X1078478Y338834D01*
X1075939Y341373D01*
Y343912D01*
X1078478Y338834D02*
X1083557D01*
X978154Y329946D02*
Y345181D01*
X985771D01*
X988311Y342642D01*
Y337564D01*
X985771Y335024D01*
X978154D01*
X993389Y345181D02*
X1003546D01*
Y342642D01*
X993389Y332485D01*
Y329946D01*
X1429004Y665226D02*
Y680461D01*
X1436622D01*
X1439161Y677922D01*
Y672843D01*
X1436622Y670304D01*
X1429004D01*
X1444239Y677922D02*
X1446778Y680461D01*
X1451857D01*
X1454396Y677922D01*
Y675383D01*
X1451857Y672843D01*
X1449317D01*
X1451857D01*
X1454396Y670304D01*
Y667765D01*
X1451857Y665226D01*
X1446778D01*
X1444239Y667765D01*
X368554Y406146D02*
Y421381D01*
X376171D01*
X378711Y418842D01*
Y413764D01*
X376171Y411224D01*
X368554D01*
X393946Y406146D02*
X383789D01*
X393946Y416303D01*
Y418842D01*
X391407Y421381D01*
X386328D01*
X383789Y418842D01*
X915162Y695955D02*
Y680720D01*
X922779D01*
X925319Y683259D01*
Y693416D01*
X922779Y695955D01*
X915162D01*
X940554Y680720D02*
X930397D01*
X940554Y690877D01*
Y693416D01*
X938015Y695955D01*
X932936D01*
X930397Y693416D01*
X910590Y861563D02*
Y846328D01*
X918207D01*
X920747Y848867D01*
Y859024D01*
X918207Y861563D01*
X910590D01*
X925825Y846328D02*
X930903D01*
X928364D01*
Y861563D01*
X925825Y859024D01*
X588518Y1200907D02*
Y1188211D01*
X591057Y1185672D01*
X596135D01*
X598675Y1188211D01*
Y1200907D01*
X603753Y1185672D02*
X608831D01*
X606292D01*
Y1200907D01*
X603753Y1198368D01*
D12*
X1484610Y734280D02*
G03*
X1484610Y734280I-2500J0D01*
G01*
D13*
X1672575Y915185D02*
X1723375Y892302D01*
X1672590D02*
Y938022D01*
X1621790Y892302D02*
X1672590D01*
X1621790Y938022D02*
X1672590D01*
X1621790Y873760D02*
Y958596D01*
X1530350Y873760D02*
X1621790D01*
X1530350Y958596D02*
X1621790D01*
X1530350Y873760D02*
Y958596D01*
X1675115Y1068855D02*
X1725915Y1045972D01*
X1675130D02*
Y1091692D01*
X1624330Y1045972D02*
X1675130D01*
X1624330Y1091692D02*
X1675130D01*
X1624330Y1027430D02*
Y1112266D01*
X1532890Y1027430D02*
X1624330D01*
X1532890Y1112266D02*
X1624330D01*
X1532890Y1027430D02*
Y1112266D01*
D14*
X878900Y665790D02*
Y1175290D01*
X593800Y665790D02*
X878900D01*
X593800Y1175290D02*
X878900D01*
X593800Y665790D02*
Y1175290D01*
X704490D01*
X771600D01*
X878900D01*
X593800Y665790D02*
Y1175290D01*
X878900Y665790D02*
Y1175290D01*
X593800Y665790D02*
X647500D01*
X824400D01*
X878900D01*
M02*
