M48
;Layer_Color=9474304
;FILE_FORMAT=4:4
METRIC,LZ
;TYPE=PLATED
T01F00S00C0.7000
T02F00S00C0.7500
T03F00S00C0.7620
T04F00S00C0.8500
T05F00S00C0.8890
T06F00S00C0.9000
T07F00S00C0.9200
T08F00S00C1.0200
T09F00S00C1.1430
T10F00S00C2.3000
T11F00S00C3.0000
;TYPE=NON_PLATED
T12F00S00C3.0000
%
T01
X0092072Y0066167
X0099698
X0091948Y0075435
Y0083061
T02
X010922Y0062865
X010795Y0064135
X010922Y0065405
X0110109Y0073914
X0107569
X0108839Y0075184
X0104394Y0083058
X0101854
X0103124Y0084328
T03
X0053086Y0033147
Y0038227
X0060706
Y0033147
X0067437
Y0038227
X0075057
Y0033147
X0081026Y0032893
Y0037973
X0088646
Y0032893
T04
X0140335Y0076073
X0102997Y0076454
Y0068834
X0096393Y0075311
Y0082931
X0103124Y0090424
X0110744
X01143Y0090297
Y0082677
X0140335Y0083693
T05
X0131953Y0063627
X0134493
X0052959Y0105283
Y0107823
X0093853Y0107442
Y0104902
X0093472Y0090932
X0096012
T06
X0037973Y0038481
X0040513
X0043053
X0045593
X0098933Y0030861
X0101473
X0107188Y0030988
X0109728
X0144018Y0061849
Y0064389
X0111506Y0098171
Y0100711
Y0103251
X0108458
Y0100711
Y0098171
X0104013
Y0100711
Y0103251
X0124079Y0106299
X0126619
X0129159
X0131699
X0134239
X0136779
T07
X0150071Y0073428
Y0075928
Y0077928
Y0080428
T08
X008636Y0072009
Y0074549
Y0077089
X006096
Y0074549
Y0072009
Y0079629
Y0082169
Y0084709
Y0087249
Y0089789
Y0092329
Y0094869
Y0097409
Y0099949
Y0102489
Y0105029
Y0107569
X008636
Y0105029
Y0102489
Y0099949
Y0097409
Y0094869
Y0092329
Y0089789
Y0087249
Y0084709
Y0082169
Y0079629
T09
X0151765Y0089154
Y0091694
Y0094234
X0156845
Y0089154
X0157099Y0104521
Y0109601
X0152019
Y0107061
Y0104521
X0137287Y0118364
X01323086
T10
X0152781Y0070358
Y0083498
T11
X003302Y003302
X015113
X003302Y004445
X015113Y011938
X003302
T12
X008589Y0068579
X006138
Y0115529
X008589
M30
